<?xml version="1.0" encoding="UTF-8" standalone="no"?>
<svg
   xmlns:dc="http://purl.org/dc/elements/1.1/"
   xmlns:cc="http://creativecommons.org/ns#"
   xmlns:rdf="http://www.w3.org/1999/02/22-rdf-syntax-ns#"
   xmlns:svg="http://www.w3.org/2000/svg"
   xmlns="http://www.w3.org/2000/svg"
   xmlns:sodipodi="http://sodipodi.sourceforge.net/DTD/sodipodi-0.dtd"
   xmlns:inkscape="http://www.inkscape.org/namespaces/inkscape"
   width="1757.6471"
   height="320.56461"
   style="overflow:hidden"
   id="svg2"
   version="1.1"
   inkscape:version="0.48.2 r9819"
   sodipodi:docname="graph.svg">
  <metadata
     id="metadata286">
    <rdf:RDF>
      <cc:Work
         rdf:about="">
        <dc:format>image/svg+xml</dc:format>
        <dc:type
           rdf:resource="http://purl.org/dc/dcmitype/StillImage" />
        <dc:title></dc:title>
      </cc:Work>
    </rdf:RDF>
  </metadata>
  <sodipodi:namedview
     pagecolor="#ffffff"
     bordercolor="#666666"
     borderopacity="1"
     objecttolerance="10"
     gridtolerance="10"
     guidetolerance="10"
     inkscape:pageopacity="0"
     inkscape:pageshadow="2"
     inkscape:window-width="1434"
     inkscape:window-height="838"
     id="namedview284"
     showgrid="false"
     fit-margin-top="0"
     fit-margin-left="0"
     fit-margin-right="0"
     fit-margin-bottom="0"
     inkscape:zoom="0.60879247"
     inkscape:cx="827.33861"
     inkscape:cy="87.468615"
     inkscape:window-x="0"
     inkscape:window-y="316"
     inkscape:window-maximized="0"
     inkscape:current-layer="g10" />
  <defs
     id="defs">
    <clipPath
       id="_ABSTRACT_RENDERER_ID_47">
      <rect
         x="0"
         y="4"
         width="748"
         height="146"
         id="rect6" />
    </clipPath>
  </defs>
  <g
     id="g10"
     transform="translate(-6.5882353,198.79983)">
    <rect
       style="fill:#ffffff;stroke:none;overflow:hidden"
       x="5.4117646"
       y="-230"
       width="1760"
       height="400"
       id="rect8" />
    <rect
       style="fill:#ffffff;fill-opacity:0;stroke:none"
       x="5.4117646"
       y="-220.58824"
       width="1760"
       height="343.52942"
       id="rect12" />
    <g
       id="g16"
       transform="matrix(2.3529412,0,0,2.3529412,5.4117647,-230)">
      <rect
         style="fill:#ffffff;stroke:none"
         id="rect18"
         height="146"
         width="1"
         y="4"
         x="0" />
      <rect
         style="fill:#ffffff;stroke:none"
         id="rect20"
         height="146"
         width="1"
         y="4"
         x="174" />
      <rect
         style="fill:#ffffff;stroke:none"
         id="rect22"
         height="146"
         width="1"
         y="4"
         x="349" />
      <rect
         style="fill:#ffffff;stroke:none"
         id="rect24"
         height="146"
         width="1"
         y="4"
         x="523" />
      <rect
         style="fill:#ffffff;stroke:none"
         id="rect26"
         height="146"
         width="1"
         y="4"
         x="697" />
      <rect
         style="fill:#efefef;stroke:none"
         id="rect28"
         height="1"
         width="748"
         y="149"
         x="0" />
      <rect
         style="fill:#efefef;stroke:none"
         id="rect30"
         height="1"
         width="748"
         y="77"
         x="0" />
      <rect
         style="fill:#efefef;stroke:none"
         id="rect32"
         height="1"
         width="748"
         y="4"
         x="0" />
    </g>
    <g
       id="g34"
       transform="matrix(2.3529412,0,0,2.3529412,5.4117647,-230)">
      <g
         id="g36">
        <path
           style="fill:#058dc7;fill-opacity:0.1;stroke:none"
           inkscape:connector-curvature="0"
           id="path38"
           d="m 0.5,149.5 0,-119.978179 24.9,38.058358 24.9,-21.58325 24.9,11.330714 24.9,-26.562964 24.9,-2.839929 24.9,-2.293071 24.9,2.669035 24.9,26.661357 24.9,12.123036 24.9,-0.861714 24.9,-30.202464 24.9,-4.056893 24.9,-16.763036 24.9,19.910571 24.9,19.547036 24.9,14.124036 24.9,-8.942357 24.9,-25.372929 24.9,1.77625 24.9,-9.462286 24.9,-6.946535 24.9,-6.574715 24.9,51.174643 24.9,5.431286 24.9,-32.084357 24.9,2.571678 24.9,-17.252928 24.9,24.884071 24.9,31.694929 24.9,-4.109714 0,73.930321 z" />
      </g>
      <g
         id="g40">
        <path
           style="fill:#ed7e17;fill-opacity:0;stroke:none"
           inkscape:connector-curvature="0"
           id="path42"
           d="m 0.5,149.5 0,-31.00204 24.9,20.11047 24.9,-27.51064 24.9,22.243 24.9,-16.62011 24.9,2.84511 24.9,13.00546 24.9,-14.22864 24.9,19.86603 24.9,-6.5426 24.9,8.43796 24.9,-19.05196 24.9,-4.35208 24.9,14.29079 24.9,-7.69121 24.9,2.34278 24.9,3.69854 24.9,9.35146 24.9,-20.25028 24.9,2.37489 24.9,12.03914 24.9,-15.18875 24.9,-32.261463 24.9,32.223143 24.9,17.35029 24.9,-27.30972 24.9,7.07186 24.9,5.46236 24.9,2.87203 24.9,17.55847 24.9,-12.23075 0,21.09646 z" />
      </g>
      <g
         id="g44">
        <path
           style="fill:#50b432;fill-opacity:0;stroke:none"
           inkscape:connector-curvature="0"
           id="path46"
           d="m 0.5,149.5 0,-19.86914 24.9,2.99114 24.9,1.31432 24.9,-3.56493 24.9,-4.0196 24.9,-3.48311 24.9,0.75711 24.9,2.12839 24.9,2.43082 24.9,2.4215 24.9,-3.277 24.9,-1.98961 24.9,-0.24028 24.9,1.6385 24.9,-0.0414 24.9,2.01343 24.9,0.86585 24.9,-6.20703 24.9,-1.79075 24.9,-0.71361 24.9,1.27807 24.9,2.39561 24.9,7.25414 24.9,2.94661 24.9,-4.07657 24.9,-1.24597 24.9,0.32418 24.9,2.16568 24.9,1.52457 24.9,1.95336 24.9,0.52821 0,13.58754 z" />
      </g>
    </g>
    <g
       id="g48"
       transform="matrix(2.3529412,0,0,2.3529412,5.4117647,-230)">
      <rect
         style="fill:#333333;stroke:none"
         id="rect50"
         height="1"
         width="748"
         y="149"
         x="0" />
    </g>
    <path
       d="m 6.5882353,-160.53689 58.5882357,89.549077 58.588239,-50.784117 58.58823,26.660503 58.58824,-62.501093 58.58823,-6.68219 58.58824,-5.39546 58.58824,6.28009 58.58823,62.7326 58.58824,28.524792 58.58823,-2.027562 58.58824,-71.06462 58.58824,-9.54563 58.58823,-39.44244 58.58824,46.8484 58.58823,45.99303 58.58824,33.233025 58.58819,-21.040841 58.5883,-59.701014 58.5882,4.17942 58.5883,-22.26421 58.5882,-16.34478 58.5882,-15.46992 58.5883,120.410923 58.5882,12.779497 58.5882,-75.49261 58.5883,6.05101 58.5882,-40.59512 58.5882,58.55075 58.5883,74.576307 58.5882,-9.669916"
       id="path54"
       inkscape:connector-curvature="0"
       style="fill:none;stroke:#058dc7;stroke-width:9.4117651" />
    <path
       d="m 6.5882353,75.013791 58.5882357,7.037977 58.588239,3.092518 58.58823,-8.388071 58.58824,-9.457883 58.58823,-8.195553 58.58824,1.781436 58.58824,5.007976 58.58823,5.719577 58.58824,5.697647 58.58823,-7.710588 58.58824,-4.681436 58.58824,-0.565365 58.58823,3.855295 58.58824,-0.09741 58.58823,4.737482 58.58824,2.037294 58.58819,-14.604776 58.5883,-4.21353 58.5882,-1.679082 58.5883,3.007224 58.5882,5.636729 58.5882,17.068565 58.5883,6.9332 58.5882,-9.59193 58.5882,-2.931694 58.5883,0.762777 58.5882,5.095717 58.5882,3.587224 58.5883,4.596141 58.5882,1.242847"
       id="path58"
       inkscape:connector-curvature="0"
       style="fill:none;stroke:#50b432;stroke-width:4.70588255" />
    <circle
       d="m 5,29.521822 c 0,2.485281 -2.0147186,4.5 -4.5,4.5 -2.4852814,0 -4.5,-2.014719 -4.5,-4.5 0,-2.485281 2.0147186,-4.5 4.5,-4.5 2.4852814,0 4.5,2.014719 4.5,4.5 z"
       id="circle62"
       r="4.5"
       cy="29.521822"
       cx="0.5"
       sodipodi:cx="0.5"
       sodipodi:cy="29.521822"
       sodipodi:rx="4.5"
       sodipodi:ry="4.5"
       style="fill:#058dc7;stroke:none"
       transform="matrix(2.3529412,0,0,2.3529412,5.4117647,-230)" />
    <circle
       d="m 29.9,67.580177 c 0,2.485282 -2.014719,4.5 -4.5,4.5 -2.485282,0 -4.5,-2.014718 -4.5,-4.5 0,-2.485281 2.014718,-4.5 4.5,-4.5 2.485281,0 4.5,2.014719 4.5,4.5 z"
       id="circle64"
       r="4.5"
       cy="67.580177"
       cx="25.4"
       sodipodi:cx="25.4"
       sodipodi:cy="67.580177"
       sodipodi:rx="4.5"
       sodipodi:ry="4.5"
       style="fill:#058dc7;stroke:none"
       transform="matrix(2.3529412,0,0,2.3529412,5.4117647,-230)" />
    <circle
       d="m 54.799999,45.996929 c 0,2.485282 -2.014718,4.5 -4.5,4.5 -2.485281,0 -4.5,-2.014718 -4.5,-4.5 0,-2.485281 2.014719,-4.5 4.5,-4.5 2.485282,0 4.5,2.014719 4.5,4.5 z"
       id="circle66"
       r="4.5"
       cy="45.996929"
       cx="50.299999"
       sodipodi:cx="50.299999"
       sodipodi:cy="45.996929"
       sodipodi:rx="4.5"
       sodipodi:ry="4.5"
       style="fill:#058dc7;stroke:none"
       transform="matrix(2.3529412,0,0,2.3529412,5.4117647,-230)" />
    <circle
       d="m 79.699997,57.327644 c 0,2.485282 -2.014719,4.5 -4.5,4.5 -2.485281,0 -4.5,-2.014718 -4.5,-4.5 0,-2.485281 2.014719,-4.5 4.5,-4.5 2.485281,0 4.5,2.014719 4.5,4.5 z"
       id="circle68"
       r="4.5"
       cy="57.327644"
       cx="75.199997"
       sodipodi:cx="75.199997"
       sodipodi:cy="57.327644"
       sodipodi:rx="4.5"
       sodipodi:ry="4.5"
       style="fill:#058dc7;stroke:none"
       transform="matrix(2.3529412,0,0,2.3529412,5.4117647,-230)" />
    <circle
       d="m 104.6,30.764679 c 0,2.485281 -2.01472,4.5 -4.5,4.5 -2.485283,0 -4.500002,-2.014719 -4.500002,-4.5 0,-2.485281 2.014719,-4.5 4.500002,-4.5 2.48528,0 4.5,2.014719 4.5,4.5 z"
       id="circle70"
       r="4.5"
       cy="30.764679"
       cx="100.1"
       sodipodi:cx="100.1"
       sodipodi:cy="30.764679"
       sodipodi:rx="4.5"
       sodipodi:ry="4.5"
       style="fill:#058dc7;stroke:none"
       transform="matrix(2.3529412,0,0,2.3529412,5.4117647,-230)" />
    <circle
       d="m 129.5,27.924749 c 0,2.485282 -2.01472,4.5 -4.5,4.5 -2.48528,0 -4.5,-2.014718 -4.5,-4.5 0,-2.485281 2.01472,-4.5 4.5,-4.5 2.48528,0 4.5,2.014719 4.5,4.5 z"
       id="circle72"
       r="4.5"
       cy="27.924749"
       cx="125"
       sodipodi:cx="125"
       sodipodi:cy="27.924749"
       sodipodi:rx="4.5"
       sodipodi:ry="4.5"
       style="fill:#058dc7;stroke:none"
       transform="matrix(2.3529412,0,0,2.3529412,5.4117647,-230)" />
    <circle
       d="m 154.39999,25.631678 c 0,2.485281 -2.01471,4.5 -4.5,4.5 -2.48528,0 -4.5,-2.014719 -4.5,-4.5 0,-2.485282 2.01472,-4.5 4.5,-4.5 2.48529,0 4.5,2.014718 4.5,4.5 z"
       id="circle74"
       r="4.5"
       cy="25.631678"
       cx="149.89999"
       sodipodi:cx="149.89999"
       sodipodi:cy="25.631678"
       sodipodi:rx="4.5"
       sodipodi:ry="4.5"
       style="fill:#058dc7;stroke:none"
       transform="matrix(2.3529412,0,0,2.3529412,5.4117647,-230)" />
    <circle
       d="m 179.3,28.300714 c 0,2.485282 -2.01472,4.5 -4.5,4.5 -2.48528,0 -4.5,-2.014718 -4.5,-4.5 0,-2.485281 2.01472,-4.5 4.5,-4.5 2.48528,0 4.5,2.014719 4.5,4.5 z"
       id="circle76"
       r="4.5"
       cy="28.300714"
       cx="174.8"
       sodipodi:cx="174.8"
       sodipodi:cy="28.300714"
       sodipodi:rx="4.5"
       sodipodi:ry="4.5"
       style="fill:#058dc7;stroke:none"
       transform="matrix(2.3529412,0,0,2.3529412,5.4117647,-230)" />
    <circle
       d="m 204.2,54.96207 c 0,2.485282 -2.01472,4.5 -4.5,4.5 -2.48528,0 -4.5,-2.014718 -4.5,-4.5 0,-2.485281 2.01472,-4.5 4.5,-4.5 2.48528,0 4.5,2.014719 4.5,4.5 z"
       id="circle78"
       r="4.5"
       cy="54.96207"
       cx="199.7"
       sodipodi:cx="199.7"
       sodipodi:cy="54.96207"
       sodipodi:rx="4.5"
       sodipodi:ry="4.5"
       style="fill:#058dc7;stroke:none"
       transform="matrix(2.3529412,0,0,2.3529412,5.4117647,-230)" />
    <circle
       d="m 229.10001,67.085106 c 0,2.485281 -2.01472,4.5 -4.5,4.5 -2.48529,0 -4.5,-2.014719 -4.5,-4.5 0,-2.485281 2.01471,-4.5 4.5,-4.5 2.48528,0 4.5,2.014719 4.5,4.5 z"
       id="circle80"
       r="4.5"
       cy="67.085106"
       cx="224.60001"
       sodipodi:cx="224.60001"
       sodipodi:cy="67.085106"
       sodipodi:rx="4.5"
       sodipodi:ry="4.5"
       style="fill:#058dc7;stroke:none"
       transform="matrix(2.3529412,0,0,2.3529412,5.4117647,-230)" />
    <circle
       d="m 254,66.223396 c 0,2.485282 -2.01472,4.5 -4.5,4.5 -2.48528,0 -4.5,-2.014718 -4.5,-4.5 0,-2.485281 2.01472,-4.5 4.5,-4.5 2.48528,0 4.5,2.014719 4.5,4.5 z"
       id="circle82"
       r="4.5"
       cy="66.223396"
       cx="249.5"
       sodipodi:cx="249.5"
       sodipodi:cy="66.223396"
       sodipodi:rx="4.5"
       sodipodi:ry="4.5"
       style="fill:#058dc7;stroke:none"
       transform="matrix(2.3529412,0,0,2.3529412,5.4117647,-230)" />
    <circle
       d="m 278.89999,36.020927 c 0,2.485282 -2.01471,4.5 -4.5,4.5 -2.48528,0 -4.5,-2.014718 -4.5,-4.5 0,-2.485281 2.01472,-4.5 4.5,-4.5 2.48529,0 4.5,2.014719 4.5,4.5 z"
       id="circle84"
       r="4.5"
       cy="36.020927"
       cx="274.39999"
       sodipodi:cx="274.39999"
       sodipodi:cy="36.020927"
       sodipodi:rx="4.5"
       sodipodi:ry="4.5"
       style="fill:#058dc7;stroke:none"
       transform="matrix(2.3529412,0,0,2.3529412,5.4117647,-230)" />
    <circle
       d="m 303.79999,31.964035 c 0,2.485281 -2.01472,4.5 -4.5,4.5 -2.48528,0 -4.5,-2.014719 -4.5,-4.5 0,-2.485281 2.01472,-4.5 4.5,-4.5 2.48528,0 4.5,2.014719 4.5,4.5 z"
       id="circle86"
       r="4.5"
       cy="31.964035"
       cx="299.29999"
       sodipodi:cx="299.29999"
       sodipodi:cy="31.964035"
       sodipodi:rx="4.5"
       sodipodi:ry="4.5"
       style="fill:#058dc7;stroke:none"
       transform="matrix(2.3529412,0,0,2.3529412,5.4117647,-230)" />
    <circle
       d="m 328.70001,15.201 c 0,2.485282 -2.01472,4.5 -4.5,4.5 -2.48528,0 -4.5,-2.014718 -4.5,-4.5 0,-2.485281 2.01472,-4.5 4.5,-4.5 2.48528,0 4.5,2.014719 4.5,4.5 z"
       id="circle88"
       r="4.5"
       cy="15.201"
       cx="324.20001"
       sodipodi:cx="324.20001"
       sodipodi:cy="15.201"
       sodipodi:rx="4.5"
       sodipodi:ry="4.5"
       style="fill:#058dc7;stroke:none"
       transform="matrix(2.3529412,0,0,2.3529412,5.4117647,-230)" />
    <circle
       d="m 353.60001,35.111572 c 0,2.485282 -2.01472,4.5 -4.5,4.5 -2.48529,0 -4.5,-2.014718 -4.5,-4.5 0,-2.485281 2.01471,-4.5 4.5,-4.5 2.48528,0 4.5,2.014719 4.5,4.5 z"
       id="circle90"
       r="4.5"
       cy="35.111572"
       cx="349.10001"
       sodipodi:cx="349.10001"
       sodipodi:cy="35.111572"
       sodipodi:rx="4.5"
       sodipodi:ry="4.5"
       style="fill:#058dc7;stroke:none"
       transform="matrix(2.3529412,0,0,2.3529412,5.4117647,-230)" />
    <circle
       d="m 378.5,54.658607 c 0,2.485282 -2.01472,4.5 -4.5,4.5 -2.48528,0 -4.5,-2.014718 -4.5,-4.5 0,-2.485281 2.01472,-4.5 4.5,-4.5 2.48528,0 4.5,2.014719 4.5,4.5 z"
       id="circle92"
       r="4.5"
       cy="54.658607"
       cx="374"
       sodipodi:cx="374"
       sodipodi:cy="54.658607"
       sodipodi:rx="4.5"
       sodipodi:ry="4.5"
       style="fill:#058dc7;stroke:none"
       transform="matrix(2.3529412,0,0,2.3529412,5.4117647,-230)" />
    <circle
       d="m 403.39999,68.782646 c 0,2.485282 -2.01471,4.5 -4.5,4.5 -2.48528,0 -4.5,-2.014718 -4.5,-4.5 0,-2.485281 2.01472,-4.5 4.5,-4.5 2.48529,0 4.5,2.014719 4.5,4.5 z"
       id="circle94"
       r="4.5"
       cy="68.782646"
       cx="398.89999"
       sodipodi:cx="398.89999"
       sodipodi:cy="68.782646"
       sodipodi:rx="4.5"
       sodipodi:ry="4.5"
       style="fill:#058dc7;stroke:none"
       transform="matrix(2.3529412,0,0,2.3529412,5.4117647,-230)" />
    <circle
       d="m 428.29999,59.840286 c 0,2.485282 -2.01472,4.5 -4.5,4.5 -2.48528,0 -4.5,-2.014718 -4.5,-4.5 0,-2.485281 2.01472,-4.5 4.5,-4.5 2.48528,0 4.5,2.014719 4.5,4.5 z"
       id="circle96"
       r="4.5"
       cy="59.840286"
       cx="423.79999"
       sodipodi:cx="423.79999"
       sodipodi:cy="59.840286"
       sodipodi:rx="4.5"
       sodipodi:ry="4.5"
       style="fill:#058dc7;stroke:none"
       transform="matrix(2.3529412,0,0,2.3529412,5.4117647,-230)" />
    <circle
       d="m 453.20001,34.467358 c 0,2.485281 -2.01472,4.5 -4.5,4.5 -2.48528,0 -4.5,-2.014719 -4.5,-4.5 0,-2.485282 2.01472,-4.5 4.5,-4.5 2.48528,0 4.5,2.014718 4.5,4.5 z"
       id="circle98"
       r="4.5"
       cy="34.467358"
       cx="448.70001"
       sodipodi:cx="448.70001"
       sodipodi:cy="34.467358"
       sodipodi:rx="4.5"
       sodipodi:ry="4.5"
       style="fill:#058dc7;stroke:none"
       transform="matrix(2.3529412,0,0,2.3529412,5.4117647,-230)" />
    <circle
       d="m 478.10001,36.243607 c 0,2.485281 -2.01472,4.5 -4.5,4.5 -2.48529,0 -4.5,-2.014719 -4.5,-4.5 0,-2.485282 2.01471,-4.5 4.5,-4.5 2.48528,0 4.5,2.014718 4.5,4.5 z"
       id="circle100"
       r="4.5"
       cy="36.243607"
       cx="473.60001"
       sodipodi:cx="473.60001"
       sodipodi:cy="36.243607"
       sodipodi:rx="4.5"
       sodipodi:ry="4.5"
       style="fill:#058dc7;stroke:none"
       transform="matrix(2.3529412,0,0,2.3529412,5.4117647,-230)" />
    <circle
       d="m 503,26.781321 c 0,2.485281 -2.01472,4.5 -4.5,4.5 -2.48528,0 -4.5,-2.014719 -4.5,-4.5 0,-2.485282 2.01472,-4.5 4.5,-4.5 2.48528,0 4.5,2.014718 4.5,4.5 z"
       id="circle102"
       r="4.5"
       cy="26.781321"
       cx="498.5"
       sodipodi:cx="498.5"
       sodipodi:cy="26.781321"
       sodipodi:rx="4.5"
       sodipodi:ry="4.5"
       style="fill:#058dc7;stroke:none"
       transform="matrix(2.3529412,0,0,2.3529412,5.4117647,-230)" />
    <circle
       d="m 527.90002,19.834785 c 0,2.485282 -2.01471,4.5 -4.5,4.5 -2.48528,0 -4.5,-2.014718 -4.5,-4.5 0,-2.485281 2.01472,-4.5 4.5,-4.5 2.48529,0 4.5,2.014719 4.5,4.5 z"
       id="circle104"
       r="4.5"
       cy="19.834785"
       cx="523.40002"
       sodipodi:cx="523.40002"
       sodipodi:cy="19.834785"
       sodipodi:rx="4.5"
       sodipodi:ry="4.5"
       style="fill:#058dc7;stroke:none"
       transform="matrix(2.3529412,0,0,2.3529412,5.4117647,-230)" />
    <circle
       d="m 552.79999,13.260072 c 0,2.485281 -2.01472,4.5 -4.5,4.5 -2.48528,0 -4.5,-2.014719 -4.5,-4.5 0,-2.485282 2.01472,-4.5000002 4.5,-4.5000002 2.48528,0 4.5,2.0147182 4.5,4.5000002 z"
       id="circle106"
       r="4.5"
       cy="13.260072"
       cx="548.29999"
       sodipodi:cx="548.29999"
       sodipodi:cy="13.260072"
       sodipodi:rx="4.5"
       sodipodi:ry="4.5"
       style="fill:#058dc7;stroke:none"
       transform="matrix(2.3529412,0,0,2.3529412,5.4117647,-230)" />
    <circle
       d="m 577.70001,64.434715 c 0,2.485282 -2.01472,4.5 -4.5,4.5 -2.48528,0 -4.5,-2.014718 -4.5,-4.5 0,-2.485281 2.01472,-4.5 4.5,-4.5 2.48528,0 4.5,2.014719 4.5,4.5 z"
       id="circle108"
       r="4.5"
       cy="64.434715"
       cx="573.20001"
       sodipodi:cx="573.20001"
       sodipodi:cy="64.434715"
       sodipodi:rx="4.5"
       sodipodi:ry="4.5"
       style="fill:#058dc7;stroke:none"
       transform="matrix(2.3529412,0,0,2.3529412,5.4117647,-230)" />
    <circle
       d="m 602.59998,69.865997 c 0,2.485282 -2.01472,4.5 -4.5,4.5 -2.48529,0 -4.5,-2.014718 -4.5,-4.5 0,-2.485281 2.01471,-4.5 4.5,-4.5 2.48528,0 4.5,2.014719 4.5,4.5 z"
       id="circle110"
       r="4.5"
       cy="69.865997"
       cx="598.09998"
       sodipodi:cx="598.09998"
       sodipodi:cy="69.865997"
       sodipodi:rx="4.5"
       sodipodi:ry="4.5"
       style="fill:#058dc7;stroke:none"
       transform="matrix(2.3529412,0,0,2.3529412,5.4117647,-230)" />
    <circle
       d="m 627.5,37.781643 c 0,2.485281 -2.01472,4.5 -4.5,4.5 -2.48528,0 -4.5,-2.014719 -4.5,-4.5 0,-2.485281 2.01472,-4.5 4.5,-4.5 2.48528,0 4.5,2.014719 4.5,4.5 z"
       id="circle112"
       r="4.5"
       cy="37.781643"
       cx="623"
       sodipodi:cx="623"
       sodipodi:cy="37.781643"
       sodipodi:rx="4.5"
       sodipodi:ry="4.5"
       style="fill:#058dc7;stroke:none"
       transform="matrix(2.3529412,0,0,2.3529412,5.4117647,-230)" />
    <circle
       d="m 652.40002,40.353321 c 0,2.485281 -2.01471,4.5 -4.5,4.5 -2.48528,0 -4.5,-2.014719 -4.5,-4.5 0,-2.485281 2.01472,-4.5 4.5,-4.5 2.48529,0 4.5,2.014719 4.5,4.5 z"
       id="circle114"
       r="4.5"
       cy="40.353321"
       cx="647.90002"
       sodipodi:cx="647.90002"
       sodipodi:cy="40.353321"
       sodipodi:rx="4.5"
       sodipodi:ry="4.5"
       style="fill:#058dc7;stroke:none"
       transform="matrix(2.3529412,0,0,2.3529412,5.4117647,-230)" />
    <circle
       d="m 677.29999,23.100393 c 0,2.485282 -2.01472,4.5 -4.5,4.5 -2.48528,0 -4.5,-2.014718 -4.5,-4.5 0,-2.485281 2.01472,-4.5 4.5,-4.5 2.48528,0 4.5,2.014719 4.5,4.5 z"
       id="circle116"
       r="4.5"
       cy="23.100393"
       cx="672.79999"
       sodipodi:cx="672.79999"
       sodipodi:cy="23.100393"
       sodipodi:rx="4.5"
       sodipodi:ry="4.5"
       style="fill:#058dc7;stroke:none"
       transform="matrix(2.3529412,0,0,2.3529412,5.4117647,-230)" />
    <circle
       d="m 702.20001,47.984463 c 0,2.485281 -2.01472,4.5 -4.5,4.5 -2.48528,0 -4.5,-2.014719 -4.5,-4.5 0,-2.485282 2.01472,-4.5 4.5,-4.5 2.48528,0 4.5,2.014718 4.5,4.5 z"
       id="circle118"
       r="4.5"
       cy="47.984463"
       cx="697.70001"
       sodipodi:cx="697.70001"
       sodipodi:cy="47.984463"
       sodipodi:rx="4.5"
       sodipodi:ry="4.5"
       style="fill:#058dc7;stroke:none"
       transform="matrix(2.3529412,0,0,2.3529412,5.4117647,-230)" />
    <circle
       d="m 727.09998,79.67939 c 0,2.485281 -2.01472,4.5 -4.5,4.5 -2.48529,0 -4.5,-2.014719 -4.5,-4.5 0,-2.485281 2.01471,-4.5 4.5,-4.5 2.48528,0 4.5,2.014719 4.5,4.5 z"
       id="circle120"
       r="4.5"
       cy="79.67939"
       cx="722.59998"
       sodipodi:cx="722.59998"
       sodipodi:cy="79.67939"
       sodipodi:rx="4.5"
       sodipodi:ry="4.5"
       style="fill:#058dc7;stroke:none"
       transform="matrix(2.3529412,0,0,2.3529412,5.4117647,-230)" />
    <circle
       d="m 752,75.569679 c 0,2.485282 -2.01472,4.5 -4.5,4.5 -2.48528,0 -4.5,-2.014718 -4.5,-4.5 0,-2.485281 2.01472,-4.5 4.5,-4.5 2.48528,0 4.5,2.014719 4.5,4.5 z"
       id="circle122"
       r="4.5"
       cy="75.569679"
       cx="747.5"
       sodipodi:cx="747.5"
       sodipodi:cy="75.569679"
       sodipodi:rx="4.5"
       sodipodi:ry="4.5"
       style="fill:#058dc7;stroke:none"
       transform="matrix(2.3529412,0,0,2.3529412,5.4117647,-230)" />
    <circle
       d="m 29.9,138.60843 c 0,2.48528 -2.014719,4.5 -4.5,4.5 -2.485282,0 -4.5,-2.01472 -4.5,-4.5 0,-2.48528 2.014718,-4.5 4.5,-4.5 2.485281,0 4.5,2.01472 4.5,4.5 z"
       id="circle126"
       r="4.5"
       cy="138.60843"
       cx="25.4"
       sodipodi:cx="25.4"
       sodipodi:cy="138.60843"
       sodipodi:rx="4.5"
       sodipodi:ry="4.5"
       style="fill:#ed7e17;stroke:none"
       transform="matrix(2.3529412,0,0,2.3529412,5.4117647,-314)" />
    <circle
       d="m 229.10001,131.66603 c 0,2.48528 -2.01472,4.5 -4.5,4.5 -2.48529,0 -4.5,-2.01472 -4.5,-4.5 0,-2.48528 2.01471,-4.5 4.5,-4.5 2.48528,0 4.5,2.01472 4.5,4.5 z"
       id="circle142"
       r="4.5"
       cy="131.66603"
       cx="224.60001"
       sodipodi:cx="224.60001"
       sodipodi:cy="131.66603"
       sodipodi:rx="4.5"
       sodipodi:ry="4.5"
       style="fill:#ed7e17;stroke:none"
       transform="matrix(2.3529412,0,0,2.3529412,5.4117647,-314)" />
    <circle
       d="m 403.39999,129.34085 c 0,2.48528 -2.01471,4.5 -4.5,4.5 -2.48528,0 -4.5,-2.01472 -4.5,-4.5 0,-2.48528 2.01472,-4.5 4.5,-4.5 2.48529,0 4.5,2.01472 4.5,4.5 z"
       id="circle156"
       r="4.5"
       cy="129.34085"
       cx="398.89999"
       sodipodi:cx="398.89999"
       sodipodi:cy="129.34085"
       sodipodi:rx="4.5"
       sodipodi:ry="4.5"
       style="fill:#ed7e17;stroke:none"
       transform="matrix(2.3529412,0,0,2.3529412,5.4117647,-230)" />
    <circle
       d="m 478.10001,120.81693 c 0,2.48528 -2.01472,4.5 -4.5,4.5 -2.48529,0 -4.5,-2.01472 -4.5,-4.5 0,-2.48528 2.01471,-4.5 4.5,-4.5 2.48528,0 4.5,2.01472 4.5,4.5 z"
       id="circle162"
       r="4.5"
       cy="120.81693"
       cx="473.60001"
       sodipodi:cx="473.60001"
       sodipodi:cy="120.81693"
       sodipodi:rx="4.5"
       sodipodi:ry="4.5"
       style="fill:#ed7e17;stroke:none"
       transform="matrix(2.3529412,0,0,2.3529412,5.4117647,-230)" />
    <circle
       d="m 5,129.63086 c 0,2.48528 -2.0147186,4.5 -4.5,4.5 -2.4852814,0 -4.5,-2.01472 -4.5,-4.5 0,-2.48528 2.0147186,-4.5 4.5,-4.5 2.4852814,0 4.5,2.01472 4.5,4.5 z"
       id="circle186"
       r="4.5"
       cy="129.63086"
       cx="0.5"
       sodipodi:cx="0.5"
       sodipodi:cy="129.63086"
       sodipodi:rx="4.5"
       sodipodi:ry="4.5"
       style="fill:#50b432;stroke:none"
       transform="matrix(2.3529412,0,0,2.3529412,5.4117647,-230)" />
    <path
       d="m 6.5882353,-35.181268 58.5882357,47.318754 58.588239,-64.730919 58.58823,52.336471 58.58824,-39.106141 58.58823,6.694376 58.58824,30.601083 58.58824,-33.479153 58.58823,46.7436 58.58824,-15.394353 58.58823,19.854024 58.58824,-44.828142 58.58824,-10.240188 58.58823,33.625388 58.58824,-18.096964 58.58823,5.512423 58.58824,8.702447 58.58819,22.003436 58.5883,-47.647718 58.5882,5.587976 58.5883,28.327389 58.5882,-35.738236 58.5882,-75.909325 58.5883,75.81916 58.5882,40.824213 58.5882,-64.258166 58.5883,16.639671 58.5882,12.852612 58.5882,6.757718 58.5883,41.314052 58.5882,-28.778241"
       id="path56"
       inkscape:connector-curvature="0"
       style="fill:none;stroke:#ed7e17;stroke-width:4.70588255" />
    <circle
       d="m 5,118.49796 c 0,2.48528 -2.0147186,4.5 -4.5,4.5 -2.4852814,0 -4.5,-2.01472 -4.5,-4.5 0,-2.48528 2.0147186,-4.5 4.5,-4.5 2.4852814,0 4.5,2.01472 4.5,4.5 z"
       id="circle124"
       r="4.5"
       cy="118.49796"
       cx="0.5"
       sodipodi:cx="0.5"
       sodipodi:cy="118.49796"
       sodipodi:rx="4.5"
       sodipodi:ry="4.5"
       style="fill:#ed7e17;stroke:none"
       transform="matrix(2.3529412,0,0,2.3529412,5.4117647,-314)" />
    <circle
       d="m 54.799999,111.09779 c 0,2.48528 -2.014718,4.5 -4.5,4.5 -2.485281,0 -4.5,-2.01472 -4.5,-4.5 0,-2.48528 2.014719,-4.5 4.5,-4.5 2.485282,0 4.5,2.01472 4.5,4.5 z"
       id="circle128"
       r="4.5"
       cy="111.09779"
       cx="50.299999"
       sodipodi:cx="50.299999"
       sodipodi:cy="111.09779"
       sodipodi:rx="4.5"
       sodipodi:ry="4.5"
       style="fill:#ed7e17;stroke:none"
       transform="matrix(2.3529412,0,0,2.3529412,5.4117647,-314)" />
    <circle
       d="m 79.699997,133.34079 c 0,2.48528 -2.014719,4.5 -4.5,4.5 -2.485281,0 -4.5,-2.01472 -4.5,-4.5 0,-2.48528 2.014719,-4.5 4.5,-4.5 2.485281,0 4.5,2.01472 4.5,4.5 z"
       id="circle130"
       r="4.5"
       cy="133.34079"
       cx="75.199997"
       sodipodi:cx="75.199997"
       sodipodi:cy="133.34079"
       sodipodi:rx="4.5"
       sodipodi:ry="4.5"
       style="fill:#ed7e17;stroke:none"
       transform="matrix(2.3529412,0,0,2.3529412,5.4117647,-314)" />
    <circle
       d="m 104.6,116.72068 c 0,2.48528 -2.01472,4.5 -4.5,4.5 -2.485283,0 -4.500002,-2.01472 -4.500002,-4.5 0,-2.48528 2.014719,-4.5 4.500002,-4.5 2.48528,0 4.5,2.01472 4.5,4.5 z"
       id="circle132"
       r="4.5"
       cy="116.72068"
       cx="100.1"
       sodipodi:cx="100.1"
       sodipodi:cy="116.72068"
       sodipodi:rx="4.5"
       sodipodi:ry="4.5"
       style="fill:#ed7e17;stroke:none"
       transform="matrix(2.3529412,0,0,2.3529412,5.4117647,-314)" />
    <circle
       d="m 129.5,119.56579 c 0,2.48528 -2.01472,4.5 -4.5,4.5 -2.48528,0 -4.5,-2.01472 -4.5,-4.5 0,-2.48528 2.01472,-4.5 4.5,-4.5 2.48528,0 4.5,2.01472 4.5,4.5 z"
       id="circle134"
       r="4.5"
       cy="119.56579"
       cx="125"
       sodipodi:cx="125"
       sodipodi:cy="119.56579"
       sodipodi:rx="4.5"
       sodipodi:ry="4.5"
       style="fill:#ed7e17;stroke:none"
       transform="matrix(2.3529412,0,0,2.3529412,5.4117647,-314)" />
    <circle
       d="m 154.39999,132.57124 c 0,2.48528 -2.01471,4.5 -4.5,4.5 -2.48528,0 -4.5,-2.01472 -4.5,-4.5 0,-2.48528 2.01472,-4.5 4.5,-4.5 2.48529,0 4.5,2.01472 4.5,4.5 z"
       id="circle136"
       r="4.5"
       cy="132.57124"
       cx="149.89999"
       sodipodi:cx="149.89999"
       sodipodi:cy="132.57124"
       sodipodi:rx="4.5"
       sodipodi:ry="4.5"
       style="fill:#ed7e17;stroke:none"
       transform="matrix(2.3529412,0,0,2.3529412,5.4117647,-314)" />
    <circle
       d="m 179.3,118.34261 c 0,2.48528 -2.01472,4.5 -4.5,4.5 -2.48528,0 -4.5,-2.01472 -4.5,-4.5 0,-2.48528 2.01472,-4.5 4.5,-4.5 2.48528,0 4.5,2.01472 4.5,4.5 z"
       id="circle138"
       r="4.5"
       cy="118.34261"
       cx="174.8"
       sodipodi:cx="174.8"
       sodipodi:cy="118.34261"
       sodipodi:rx="4.5"
       sodipodi:ry="4.5"
       style="fill:#ed7e17;stroke:none"
       transform="matrix(2.3529412,0,0,2.3529412,5.4117647,-314)" />
    <circle
       d="m 204.2,138.20865 c 0,2.48528 -2.01472,4.5 -4.5,4.5 -2.48528,0 -4.5,-2.01472 -4.5,-4.5 0,-2.48528 2.01472,-4.5 4.5,-4.5 2.48528,0 4.5,2.01472 4.5,4.5 z"
       id="circle140"
       r="4.5"
       cy="138.20865"
       cx="199.7"
       sodipodi:cx="199.7"
       sodipodi:cy="138.20865"
       sodipodi:rx="4.5"
       sodipodi:ry="4.5"
       style="fill:#ed7e17;stroke:none"
       transform="matrix(2.3529412,0,0,2.3529412,5.4117647,-314)" />
    <circle
       d="m 254,140.104 c 0,2.48529 -2.01472,4.5 -4.5,4.5 -2.48528,0 -4.5,-2.01471 -4.5,-4.5 0,-2.48528 2.01472,-4.5 4.5,-4.5 2.48528,0 4.5,2.01472 4.5,4.5 z"
       id="circle144"
       r="4.5"
       cy="140.104"
       cx="249.5"
       sodipodi:cx="249.5"
       sodipodi:cy="140.104"
       sodipodi:rx="4.5"
       sodipodi:ry="4.5"
       style="fill:#ed7e17;stroke:none"
       transform="matrix(2.3529412,0,0,2.3529412,5.4117647,-314)" />
    <circle
       d="m 278.89999,121.05203 c 0,2.48528 -2.01471,4.5 -4.5,4.5 -2.48528,0 -4.5,-2.01472 -4.5,-4.5 0,-2.48528 2.01472,-4.5 4.5,-4.5 2.48529,0 4.5,2.01472 4.5,4.5 z"
       id="circle146"
       r="4.5"
       cy="121.05203"
       cx="274.39999"
       sodipodi:cx="274.39999"
       sodipodi:cy="121.05203"
       sodipodi:rx="4.5"
       sodipodi:ry="4.5"
       style="fill:#ed7e17;stroke:none"
       transform="matrix(2.3529412,0,0,2.3529412,5.4117647,-314)" />
    <circle
       d="m 303.79999,116.69997 c 0,2.48528 -2.01472,4.5 -4.5,4.5 -2.48528,0 -4.5,-2.01472 -4.5,-4.5 0,-2.48528 2.01472,-4.5 4.5,-4.5 2.48528,0 4.5,2.01472 4.5,4.5 z"
       id="circle148"
       r="4.5"
       cy="116.69997"
       cx="299.29999"
       sodipodi:cx="299.29999"
       sodipodi:cy="116.69997"
       sodipodi:rx="4.5"
       sodipodi:ry="4.5"
       style="fill:#ed7e17;stroke:none"
       transform="matrix(2.3529412,0,0,2.3529412,5.4117647,-314)" />
    <circle
       d="m 328.70001,130.99075 c 0,2.48528 -2.01472,4.5 -4.5,4.5 -2.48528,0 -4.5,-2.01472 -4.5,-4.5 0,-2.48528 2.01472,-4.5 4.5,-4.5 2.48528,0 4.5,2.01472 4.5,4.5 z"
       id="circle150"
       r="4.5"
       cy="130.99075"
       cx="324.20001"
       sodipodi:cx="324.20001"
       sodipodi:cy="130.99075"
       sodipodi:rx="4.5"
       sodipodi:ry="4.5"
       style="fill:#ed7e17;stroke:none"
       transform="matrix(2.3529412,0,0,2.3529412,5.4117647,-314)" />
    <circle
       d="m 353.60001,123.29954 c 0,2.48528 -2.01472,4.5 -4.5,4.5 -2.48529,0 -4.5,-2.01472 -4.5,-4.5 0,-2.48528 2.01471,-4.5 4.5,-4.5 2.48528,0 4.5,2.01472 4.5,4.5 z"
       id="circle152"
       r="4.5"
       cy="123.29954"
       cx="349.10001"
       sodipodi:cx="349.10001"
       sodipodi:cy="123.29954"
       sodipodi:rx="4.5"
       sodipodi:ry="4.5"
       style="fill:#ed7e17;stroke:none"
       transform="matrix(2.3529412,0,0,2.3529412,5.4117647,-314)" />
    <circle
       d="m 378.5,125.64232 c 0,2.48528 -2.01472,4.5 -4.5,4.5 -2.48528,0 -4.5,-2.01472 -4.5,-4.5 0,-2.48528 2.01472,-4.5 4.5,-4.5 2.48528,0 4.5,2.01472 4.5,4.5 z"
       id="circle154"
       r="4.5"
       cy="125.64232"
       cx="374"
       sodipodi:cx="374"
       sodipodi:cy="125.64232"
       sodipodi:rx="4.5"
       sodipodi:ry="4.5"
       style="fill:#ed7e17;stroke:none"
       transform="matrix(2.3529412,0,0,2.3529412,5.4117647,-314)" />
    <circle
       d="m 428.29999,138.69232 c 0,2.48528 -2.01472,4.5 -4.5,4.5 -2.48528,0 -4.5,-2.01472 -4.5,-4.5 0,-2.48528 2.01472,-4.5 4.5,-4.5 2.48528,0 4.5,2.01472 4.5,4.5 z"
       id="circle158"
       r="4.5"
       cy="138.69232"
       cx="423.79999"
       sodipodi:cx="423.79999"
       sodipodi:cy="138.69232"
       sodipodi:rx="4.5"
       sodipodi:ry="4.5"
       style="fill:#ed7e17;stroke:none"
       transform="matrix(2.3529412,0,0,2.3529412,5.4117647,-314)" />
    <circle
       d="m 453.20001,118.44204 c 0,2.48528 -2.01472,4.5 -4.5,4.5 -2.48528,0 -4.5,-2.01472 -4.5,-4.5 0,-2.48528 2.01472,-4.5 4.5,-4.5 2.48528,0 4.5,2.01472 4.5,4.5 z"
       id="circle160"
       r="4.5"
       cy="118.44204"
       cx="448.70001"
       sodipodi:cx="448.70001"
       sodipodi:cy="118.44204"
       sodipodi:rx="4.5"
       sodipodi:ry="4.5"
       style="fill:#ed7e17;stroke:none"
       transform="matrix(2.3529412,0,0,2.3529412,5.4117647,-314)" />
    <circle
       d="m 503,132.85606 c 0,2.48529 -2.01472,4.5 -4.5,4.5 -2.48528,0 -4.5,-2.01471 -4.5,-4.5 0,-2.48528 2.01472,-4.5 4.5,-4.5 2.48528,0 4.5,2.01472 4.5,4.5 z"
       id="circle164"
       r="4.5"
       cy="132.85606"
       cx="498.5"
       sodipodi:cx="498.5"
       sodipodi:cy="132.85606"
       sodipodi:rx="4.5"
       sodipodi:ry="4.5"
       style="fill:#ed7e17;stroke:none"
       transform="matrix(2.3529412,0,0,2.3529412,5.4117647,-314)" />
    <circle
       d="m 527.90002,117.66732 c 0,2.48528 -2.01471,4.5 -4.5,4.5 -2.48528,0 -4.5,-2.01472 -4.5,-4.5 0,-2.48528 2.01472,-4.5 4.5,-4.5 2.48529,0 4.5,2.01472 4.5,4.5 z"
       id="circle166"
       r="4.5"
       cy="117.66732"
       cx="523.40002"
       sodipodi:cx="523.40002"
       sodipodi:cy="117.66732"
       sodipodi:rx="4.5"
       sodipodi:ry="4.5"
       style="fill:#ed7e17;stroke:none"
       transform="matrix(2.3529412,0,0,2.3529412,5.4117647,-314)" />
    <circle
       d="m 552.79999,85.405861 c 0,2.485281 -2.01472,4.5 -4.5,4.5 -2.48528,0 -4.5,-2.014719 -4.5,-4.5 0,-2.485281 2.01472,-4.5 4.5,-4.5 2.48528,0 4.5,2.014719 4.5,4.5 z"
       id="circle168"
       r="4.5"
       cy="85.405861"
       cx="548.29999"
       sodipodi:cx="548.29999"
       sodipodi:cy="85.405861"
       sodipodi:rx="4.5"
       sodipodi:ry="4.5"
       style="fill:#ed7e17;stroke:none"
       transform="matrix(2.3529412,0,0,2.3529412,5.4117647,-314)" />
    <circle
       d="m 577.70001,117.629 c 0,2.48528 -2.01472,4.5 -4.5,4.5 -2.48528,0 -4.5,-2.01472 -4.5,-4.5 0,-2.48528 2.01472,-4.5 4.5,-4.5 2.48528,0 4.5,2.01472 4.5,4.5 z"
       id="circle170"
       r="4.5"
       cy="117.629"
       cx="573.20001"
       sodipodi:cx="573.20001"
       sodipodi:cy="117.629"
       sodipodi:rx="4.5"
       sodipodi:ry="4.5"
       style="fill:#ed7e17;stroke:none"
       transform="matrix(2.3529412,0,0,2.3529412,5.4117647,-314)" />
    <circle
       d="m 602.59998,134.97928 c 0,2.48528 -2.01472,4.5 -4.5,4.5 -2.48529,0 -4.5,-2.01472 -4.5,-4.5 0,-2.48528 2.01471,-4.5 4.5,-4.5 2.48528,0 4.5,2.01472 4.5,4.5 z"
       id="circle172"
       r="4.5"
       cy="134.97928"
       cx="598.09998"
       sodipodi:cx="598.09998"
       sodipodi:cy="134.97928"
       sodipodi:rx="4.5"
       sodipodi:ry="4.5"
       style="fill:#ed7e17;stroke:none"
       transform="matrix(2.3529412,0,0,2.3529412,5.4117647,-314)" />
    <circle
       d="m 627.5,107.66957 c 0,2.48528 -2.01472,4.5 -4.5,4.5 -2.48528,0 -4.5,-2.01472 -4.5,-4.5 0,-2.48528 2.01472,-4.5 4.5,-4.5 2.48528,0 4.5,2.01472 4.5,4.5 z"
       id="circle174"
       r="4.5"
       cy="107.66957"
       cx="623"
       sodipodi:cx="623"
       sodipodi:cy="107.66957"
       sodipodi:rx="4.5"
       sodipodi:ry="4.5"
       style="fill:#ed7e17;stroke:none"
       transform="matrix(2.3529412,0,0,2.3529412,5.4117647,-314)" />
    <circle
       d="m 652.40002,114.74143 c 0,2.48528 -2.01471,4.5 -4.5,4.5 -2.48528,0 -4.5,-2.01472 -4.5,-4.5 0,-2.48528 2.01472,-4.5 4.5,-4.5 2.48529,0 4.5,2.01472 4.5,4.5 z"
       id="circle176"
       r="4.5"
       cy="114.74143"
       cx="647.90002"
       sodipodi:cx="647.90002"
       sodipodi:cy="114.74143"
       sodipodi:rx="4.5"
       sodipodi:ry="4.5"
       style="fill:#ed7e17;stroke:none"
       transform="matrix(2.3529412,0,0,2.3529412,5.4117647,-314)" />
    <circle
       d="m 677.29999,120.20379 c 0,2.48528 -2.01472,4.5 -4.5,4.5 -2.48528,0 -4.5,-2.01472 -4.5,-4.5 0,-2.48528 2.01472,-4.5 4.5,-4.5 2.48528,0 4.5,2.01472 4.5,4.5 z"
       id="circle178"
       r="4.5"
       cy="120.20379"
       cx="672.79999"
       sodipodi:cx="672.79999"
       sodipodi:cy="120.20379"
       sodipodi:rx="4.5"
       sodipodi:ry="4.5"
       style="fill:#ed7e17;stroke:none"
       transform="matrix(2.3529412,0,0,2.3529412,5.4117647,-314)" />
    <circle
       d="m 702.20001,123.07582 c 0,2.48528 -2.01472,4.5 -4.5,4.5 -2.48528,0 -4.5,-2.01472 -4.5,-4.5 0,-2.48528 2.01472,-4.5 4.5,-4.5 2.48528,0 4.5,2.01472 4.5,4.5 z"
       id="circle180"
       r="4.5"
       cy="123.07582"
       cx="697.70001"
       sodipodi:cx="697.70001"
       sodipodi:cy="123.07582"
       sodipodi:rx="4.5"
       sodipodi:ry="4.5"
       style="fill:#ed7e17;stroke:none"
       transform="matrix(2.3529412,0,0,2.3529412,5.4117647,-314)" />
    <circle
       d="m 727.09998,140.63429 c 0,2.48528 -2.01472,4.5 -4.5,4.5 -2.48529,0 -4.5,-2.01472 -4.5,-4.5 0,-2.48528 2.01471,-4.5 4.5,-4.5 2.48528,0 4.5,2.01472 4.5,4.5 z"
       id="circle182"
       r="4.5"
       cy="140.63429"
       cx="722.59998"
       sodipodi:cx="722.59998"
       sodipodi:cy="140.63429"
       sodipodi:rx="4.5"
       sodipodi:ry="4.5"
       style="fill:#ed7e17;stroke:none"
       transform="matrix(2.3529412,0,0,2.3529412,5.4117647,-314)" />
    <circle
       d="m 752,128.40353 c 0,2.48529 -2.01472,4.5 -4.5,4.5 -2.48528,0 -4.5,-2.01471 -4.5,-4.5 0,-2.48528 2.01472,-4.5 4.5,-4.5 2.48528,0 4.5,2.01472 4.5,4.5 z"
       id="circle184"
       r="4.5"
       cy="128.40353"
       cx="747.5"
       sodipodi:cx="747.5"
       sodipodi:cy="128.40353"
       sodipodi:rx="4.5"
       sodipodi:ry="4.5"
       style="fill:#ed7e17;stroke:none"
       transform="matrix(2.3529412,0,0,2.3529412,5.4117647,-314)" />
    <circle
       d="m 29.9,132.62199 c 0,2.48529 -2.014719,4.5 -4.5,4.5 -2.485282,0 -4.5,-2.01471 -4.5,-4.5 0,-2.48528 2.014718,-4.5 4.5,-4.5 2.485281,0 4.5,2.01472 4.5,4.5 z"
       id="circle188"
       r="4.5"
       cy="132.62199"
       cx="25.4"
       sodipodi:cx="25.4"
       sodipodi:cy="132.62199"
       sodipodi:rx="4.5"
       sodipodi:ry="4.5"
       style="fill:#50b432;stroke:none"
       transform="matrix(2.3529412,0,0,2.3529412,5.4117647,-230)" />
    <circle
       d="m 54.799999,133.93633 c 0,2.48528 -2.014718,4.5 -4.5,4.5 -2.485281,0 -4.5,-2.01472 -4.5,-4.5 0,-2.48529 2.014719,-4.5 4.5,-4.5 2.485282,0 4.5,2.01471 4.5,4.5 z"
       id="circle190"
       r="4.5"
       cy="133.93633"
       cx="50.299999"
       sodipodi:cx="50.299999"
       sodipodi:cy="133.93633"
       sodipodi:rx="4.5"
       sodipodi:ry="4.5"
       style="fill:#50b432;stroke:none"
       transform="matrix(2.3529412,0,0,2.3529412,5.4117647,-230)" />
    <circle
       d="m 79.699997,130.3714 c 0,2.48528 -2.014719,4.5 -4.5,4.5 -2.485281,0 -4.5,-2.01472 -4.5,-4.5 0,-2.48528 2.014719,-4.5 4.5,-4.5 2.485281,0 4.5,2.01472 4.5,4.5 z"
       id="circle192"
       r="4.5"
       cy="130.3714"
       cx="75.199997"
       sodipodi:cx="75.199997"
       sodipodi:cy="130.3714"
       sodipodi:rx="4.5"
       sodipodi:ry="4.5"
       style="fill:#50b432;stroke:none"
       transform="matrix(2.3529412,0,0,2.3529412,5.4117647,-230)" />
    <circle
       d="m 104.6,126.35178 c 0,2.48529 -2.01472,4.5 -4.5,4.5 -2.485283,0 -4.500002,-2.01471 -4.500002,-4.5 0,-2.48528 2.014719,-4.5 4.500002,-4.5 2.48528,0 4.5,2.01472 4.5,4.5 z"
       id="circle194"
       r="4.5"
       cy="126.35178"
       cx="100.1"
       sodipodi:cx="100.1"
       sodipodi:cy="126.35178"
       sodipodi:rx="4.5"
       sodipodi:ry="4.5"
       style="fill:#50b432;stroke:none"
       transform="matrix(2.3529412,0,0,2.3529412,5.4117647,-230)" />
    <circle
       d="m 129.5,122.86868 c 0,2.48528 -2.01472,4.5 -4.5,4.5 -2.48528,0 -4.5,-2.01472 -4.5,-4.5 0,-2.48528 2.01472,-4.5 4.5,-4.5 2.48528,0 4.5,2.01472 4.5,4.5 z"
       id="circle196"
       r="4.5"
       cy="122.86868"
       cx="125"
       sodipodi:cx="125"
       sodipodi:cy="122.86868"
       sodipodi:rx="4.5"
       sodipodi:ry="4.5"
       style="fill:#50b432;stroke:none"
       transform="matrix(2.3529412,0,0,2.3529412,5.4117647,-230)" />
    <circle
       d="m 154.39999,123.62579 c 0,2.48528 -2.01471,4.5 -4.5,4.5 -2.48528,0 -4.5,-2.01472 -4.5,-4.5 0,-2.48528 2.01472,-4.5 4.5,-4.5 2.48529,0 4.5,2.01472 4.5,4.5 z"
       id="circle198"
       r="4.5"
       cy="123.62579"
       cx="149.89999"
       sodipodi:cx="149.89999"
       sodipodi:cy="123.62579"
       sodipodi:rx="4.5"
       sodipodi:ry="4.5"
       style="fill:#50b432;stroke:none"
       transform="matrix(2.3529412,0,0,2.3529412,5.4117647,-230)" />
    <circle
       d="m 179.3,125.75418 c 0,2.48528 -2.01472,4.5 -4.5,4.5 -2.48528,0 -4.5,-2.01472 -4.5,-4.5 0,-2.48528 2.01472,-4.5 4.5,-4.5 2.48528,0 4.5,2.01472 4.5,4.5 z"
       id="circle200"
       r="4.5"
       cy="125.75418"
       cx="174.8"
       sodipodi:cx="174.8"
       sodipodi:cy="125.75418"
       sodipodi:rx="4.5"
       sodipodi:ry="4.5"
       style="fill:#50b432;stroke:none"
       transform="matrix(2.3529412,0,0,2.3529412,5.4117647,-230)" />
    <circle
       d="m 204.2,128.185 c 0,2.48528 -2.01472,4.5 -4.5,4.5 -2.48528,0 -4.5,-2.01472 -4.5,-4.5 0,-2.48528 2.01472,-4.5 4.5,-4.5 2.48528,0 4.5,2.01472 4.5,4.5 z"
       id="circle202"
       r="4.5"
       cy="128.185"
       cx="199.7"
       sodipodi:cx="199.7"
       sodipodi:cy="128.185"
       sodipodi:rx="4.5"
       sodipodi:ry="4.5"
       style="fill:#50b432;stroke:none"
       transform="matrix(2.3529412,0,0,2.3529412,5.4117647,-230)" />
    <circle
       d="m 229.10001,130.60651 c 0,2.48528 -2.01472,4.5 -4.5,4.5 -2.48529,0 -4.5,-2.01472 -4.5,-4.5 0,-2.48529 2.01471,-4.5 4.5,-4.5 2.48528,0 4.5,2.01471 4.5,4.5 z"
       id="circle204"
       r="4.5"
       cy="130.60651"
       cx="224.60001"
       sodipodi:cx="224.60001"
       sodipodi:cy="130.60651"
       sodipodi:rx="4.5"
       sodipodi:ry="4.5"
       style="fill:#50b432;stroke:none"
       transform="matrix(2.3529412,0,0,2.3529412,5.4117647,-230)" />
    <circle
       d="m 254,127.3295 c 0,2.48528 -2.01472,4.5 -4.5,4.5 -2.48528,0 -4.5,-2.01472 -4.5,-4.5 0,-2.48528 2.01472,-4.5 4.5,-4.5 2.48528,0 4.5,2.01472 4.5,4.5 z"
       id="circle206"
       r="4.5"
       cy="127.3295"
       cx="249.5"
       sodipodi:cx="249.5"
       sodipodi:cy="127.3295"
       sodipodi:rx="4.5"
       sodipodi:ry="4.5"
       style="fill:#50b432;stroke:none"
       transform="matrix(2.3529412,0,0,2.3529412,5.4117647,-230)" />
    <circle
       d="m 278.89999,125.33989 c 0,2.48528 -2.01471,4.5 -4.5,4.5 -2.48528,0 -4.5,-2.01472 -4.5,-4.5 0,-2.48528 2.01472,-4.5 4.5,-4.5 2.48529,0 4.5,2.01472 4.5,4.5 z"
       id="circle208"
       r="4.5"
       cy="125.33989"
       cx="274.39999"
       sodipodi:cx="274.39999"
       sodipodi:cy="125.33989"
       sodipodi:rx="4.5"
       sodipodi:ry="4.5"
       style="fill:#50b432;stroke:none"
       transform="matrix(2.3529412,0,0,2.3529412,5.4117647,-230)" />
    <circle
       d="m 303.79999,125.09961 c 0,2.48528 -2.01472,4.5 -4.5,4.5 -2.48528,0 -4.5,-2.01472 -4.5,-4.5 0,-2.48528 2.01472,-4.5 4.5,-4.5 2.48528,0 4.5,2.01472 4.5,4.5 z"
       id="circle210"
       r="4.5"
       cy="125.09961"
       cx="299.29999"
       sodipodi:cx="299.29999"
       sodipodi:cy="125.09961"
       sodipodi:rx="4.5"
       sodipodi:ry="4.5"
       style="fill:#50b432;stroke:none"
       transform="matrix(2.3529412,0,0,2.3529412,5.4117647,-230)" />
    <circle
       d="m 328.70001,126.73811 c 0,2.48528 -2.01472,4.5 -4.5,4.5 -2.48528,0 -4.5,-2.01472 -4.5,-4.5 0,-2.48528 2.01472,-4.5 4.5,-4.5 2.48528,0 4.5,2.01472 4.5,4.5 z"
       id="circle212"
       r="4.5"
       cy="126.73811"
       cx="324.20001"
       sodipodi:cx="324.20001"
       sodipodi:cy="126.73811"
       sodipodi:rx="4.5"
       sodipodi:ry="4.5"
       style="fill:#50b432;stroke:none"
       transform="matrix(2.3529412,0,0,2.3529412,5.4117647,-230)" />
    <circle
       d="m 353.60001,126.69668 c 0,2.48528 -2.01472,4.5 -4.5,4.5 -2.48529,0 -4.5,-2.01472 -4.5,-4.5 0,-2.48528 2.01471,-4.5 4.5,-4.5 2.48528,0 4.5,2.01472 4.5,4.5 z"
       id="circle214"
       r="4.5"
       cy="126.69668"
       cx="349.10001"
       sodipodi:cx="349.10001"
       sodipodi:cy="126.69668"
       sodipodi:rx="4.5"
       sodipodi:ry="4.5"
       style="fill:#50b432;stroke:none"
       transform="matrix(2.3529412,0,0,2.3529412,5.4117647,-230)" />
    <circle
       d="m 378.5,128.71011 c 0,2.48528 -2.01472,4.5 -4.5,4.5 -2.48528,0 -4.5,-2.01472 -4.5,-4.5 0,-2.48528 2.01472,-4.5 4.5,-4.5 2.48528,0 4.5,2.01472 4.5,4.5 z"
       id="circle216"
       r="4.5"
       cy="128.71011"
       cx="374"
       sodipodi:cx="374"
       sodipodi:cy="128.71011"
       sodipodi:rx="4.5"
       sodipodi:ry="4.5"
       style="fill:#50b432;stroke:none"
       transform="matrix(2.3529412,0,0,2.3529412,5.4117647,-230)" />
    <circle
       d="m 403.39999,129.57596 c 0,2.48528 -2.01471,4.5 -4.5,4.5 -2.48528,0 -4.5,-2.01472 -4.5,-4.5 0,-2.48528 2.01472,-4.5 4.5,-4.5 2.48529,0 4.5,2.01472 4.5,4.5 z"
       id="circle218"
       r="4.5"
       cy="129.57596"
       cx="398.89999"
       sodipodi:cx="398.89999"
       sodipodi:cy="129.57596"
       sodipodi:rx="4.5"
       sodipodi:ry="4.5"
       style="fill:#50b432;stroke:none"
       transform="matrix(2.3529412,0,0,2.3529412,5.4117647,-230)" />
    <circle
       d="m 428.29999,123.36893 c 0,2.48528 -2.01472,4.5 -4.5,4.5 -2.48528,0 -4.5,-2.01472 -4.5,-4.5 0,-2.48528 2.01472,-4.5 4.5,-4.5 2.48528,0 4.5,2.01472 4.5,4.5 z"
       id="circle220"
       r="4.5"
       cy="123.36893"
       cx="423.79999"
       sodipodi:cx="423.79999"
       sodipodi:cy="123.36893"
       sodipodi:rx="4.5"
       sodipodi:ry="4.5"
       style="fill:#50b432;stroke:none"
       transform="matrix(2.3529412,0,0,2.3529412,5.4117647,-230)" />
    <circle
       d="m 453.20001,121.57818 c 0,2.48528 -2.01472,4.5 -4.5,4.5 -2.48528,0 -4.5,-2.01472 -4.5,-4.5 0,-2.48528 2.01472,-4.5 4.5,-4.5 2.48528,0 4.5,2.01472 4.5,4.5 z"
       id="circle222"
       r="4.5"
       cy="121.57818"
       cx="448.70001"
       sodipodi:cx="448.70001"
       sodipodi:cy="121.57818"
       sodipodi:rx="4.5"
       sodipodi:ry="4.5"
       style="fill:#50b432;stroke:none"
       transform="matrix(2.3529412,0,0,2.3529412,5.4117647,-230)" />
    <circle
       d="m 478.10001,120.86457 c 0,2.48528 -2.01472,4.5 -4.5,4.5 -2.48529,0 -4.5,-2.01472 -4.5,-4.5 0,-2.48528 2.01471,-4.5 4.5,-4.5 2.48528,0 4.5,2.01472 4.5,4.5 z"
       id="circle224"
       r="4.5"
       cy="120.86457"
       cx="473.60001"
       sodipodi:cx="473.60001"
       sodipodi:cy="120.86457"
       sodipodi:rx="4.5"
       sodipodi:ry="4.5"
       style="fill:#50b432;stroke:none"
       transform="matrix(2.3529412,0,0,2.3529412,5.4117647,-230)" />
    <circle
       d="m 503,122.14264 c 0,2.48528 -2.01472,4.5 -4.5,4.5 -2.48528,0 -4.5,-2.01472 -4.5,-4.5 0,-2.48528 2.01472,-4.5 4.5,-4.5 2.48528,0 4.5,2.01472 4.5,4.5 z"
       id="circle226"
       r="4.5"
       cy="122.14264"
       cx="498.5"
       sodipodi:cx="498.5"
       sodipodi:cy="122.14264"
       sodipodi:rx="4.5"
       sodipodi:ry="4.5"
       style="fill:#50b432;stroke:none"
       transform="matrix(2.3529412,0,0,2.3529412,5.4117647,-230)" />
    <circle
       d="m 527.90002,124.53825 c 0,2.48529 -2.01471,4.5 -4.5,4.5 -2.48528,0 -4.5,-2.01471 -4.5,-4.5 0,-2.48528 2.01472,-4.5 4.5,-4.5 2.48529,0 4.5,2.01472 4.5,4.5 z"
       id="circle228"
       r="4.5"
       cy="124.53825"
       cx="523.40002"
       sodipodi:cx="523.40002"
       sodipodi:cy="124.53825"
       sodipodi:rx="4.5"
       sodipodi:ry="4.5"
       style="fill:#50b432;stroke:none"
       transform="matrix(2.3529412,0,0,2.3529412,5.4117647,-230)" />
    <circle
       d="m 552.79999,131.79239 c 0,2.48528 -2.01472,4.5 -4.5,4.5 -2.48528,0 -4.5,-2.01472 -4.5,-4.5 0,-2.48528 2.01472,-4.5 4.5,-4.5 2.48528,0 4.5,2.01472 4.5,4.5 z"
       id="circle230"
       r="4.5"
       cy="131.79239"
       cx="548.29999"
       sodipodi:cx="548.29999"
       sodipodi:cy="131.79239"
       sodipodi:rx="4.5"
       sodipodi:ry="4.5"
       style="fill:#50b432;stroke:none"
       transform="matrix(2.3529412,0,0,2.3529412,5.4117647,-230)" />
    <circle
       d="m 577.70001,134.739 c 0,2.48528 -2.01472,4.5 -4.5,4.5 -2.48528,0 -4.5,-2.01472 -4.5,-4.5 0,-2.48528 2.01472,-4.5 4.5,-4.5 2.48528,0 4.5,2.01472 4.5,4.5 z"
       id="circle232"
       r="4.5"
       cy="134.739"
       cx="573.20001"
       sodipodi:cx="573.20001"
       sodipodi:cy="134.739"
       sodipodi:rx="4.5"
       sodipodi:ry="4.5"
       style="fill:#50b432;stroke:none"
       transform="matrix(2.3529412,0,0,2.3529412,5.4117647,-230)" />
    <circle
       d="m 602.59998,130.66243 c 0,2.48528 -2.01472,4.5 -4.5,4.5 -2.48529,0 -4.5,-2.01472 -4.5,-4.5 0,-2.48528 2.01471,-4.5 4.5,-4.5 2.48528,0 4.5,2.01472 4.5,4.5 z"
       id="circle234"
       r="4.5"
       cy="130.66243"
       cx="598.09998"
       sodipodi:cx="598.09998"
       sodipodi:cy="130.66243"
       sodipodi:rx="4.5"
       sodipodi:ry="4.5"
       style="fill:#50b432;stroke:none"
       transform="matrix(2.3529412,0,0,2.3529412,5.4117647,-230)" />
    <circle
       d="m 627.5,129.41646 c 0,2.48528 -2.01472,4.5 -4.5,4.5 -2.48528,0 -4.5,-2.01472 -4.5,-4.5 0,-2.48528 2.01472,-4.5 4.5,-4.5 2.48528,0 4.5,2.01472 4.5,4.5 z"
       id="circle236"
       r="4.5"
       cy="129.41646"
       cx="623"
       sodipodi:cx="623"
       sodipodi:cy="129.41646"
       sodipodi:rx="4.5"
       sodipodi:ry="4.5"
       style="fill:#50b432;stroke:none"
       transform="matrix(2.3529412,0,0,2.3529412,5.4117647,-230)" />
    <circle
       d="m 652.40002,129.74065 c 0,2.48528 -2.01471,4.5 -4.5,4.5 -2.48528,0 -4.5,-2.01472 -4.5,-4.5 0,-2.48529 2.01472,-4.5 4.5,-4.5 2.48529,0 4.5,2.01471 4.5,4.5 z"
       id="circle238"
       r="4.5"
       cy="129.74065"
       cx="647.90002"
       sodipodi:cx="647.90002"
       sodipodi:cy="129.74065"
       sodipodi:rx="4.5"
       sodipodi:ry="4.5"
       style="fill:#50b432;stroke:none"
       transform="matrix(2.3529412,0,0,2.3529412,5.4117647,-230)" />
    <circle
       d="m 677.29999,131.90633 c 0,2.48528 -2.01472,4.5 -4.5,4.5 -2.48528,0 -4.5,-2.01472 -4.5,-4.5 0,-2.48529 2.01472,-4.5 4.5,-4.5 2.48528,0 4.5,2.01471 4.5,4.5 z"
       id="circle240"
       r="4.5"
       cy="131.90633"
       cx="672.79999"
       sodipodi:cx="672.79999"
       sodipodi:cy="131.90633"
       sodipodi:rx="4.5"
       sodipodi:ry="4.5"
       style="fill:#50b432;stroke:none"
       transform="matrix(2.3529412,0,0,2.3529412,5.4117647,-230)" />
    <circle
       d="m 702.20001,133.43089 c 0,2.48528 -2.01472,4.5 -4.5,4.5 -2.48528,0 -4.5,-2.01472 -4.5,-4.5 0,-2.48528 2.01472,-4.5 4.5,-4.5 2.48528,0 4.5,2.01472 4.5,4.5 z"
       id="circle242"
       r="4.5"
       cy="133.43089"
       cx="697.70001"
       sodipodi:cx="697.70001"
       sodipodi:cy="133.43089"
       sodipodi:rx="4.5"
       sodipodi:ry="4.5"
       style="fill:#50b432;stroke:none"
       transform="matrix(2.3529412,0,0,2.3529412,5.4117647,-230)" />
    <circle
       d="m 727.09998,135.38425 c 0,2.48528 -2.01472,4.5 -4.5,4.5 -2.48529,0 -4.5,-2.01472 -4.5,-4.5 0,-2.48528 2.01471,-4.5 4.5,-4.5 2.48528,0 4.5,2.01472 4.5,4.5 z"
       id="circle244"
       r="4.5"
       cy="135.38425"
       cx="722.59998"
       sodipodi:cx="722.59998"
       sodipodi:cy="135.38425"
       sodipodi:rx="4.5"
       sodipodi:ry="4.5"
       style="fill:#50b432;stroke:none"
       transform="matrix(2.3529412,0,0,2.3529412,5.4117647,-230)" />
    <circle
       d="m 752,135.91246 c 0,2.48528 -2.01472,4.5 -4.5,4.5 -2.48528,0 -4.5,-2.01472 -4.5,-4.5 0,-2.48528 2.01472,-4.5 4.5,-4.5 2.48528,0 4.5,2.01472 4.5,4.5 z"
       id="circle246"
       r="4.5"
       cy="135.91246"
       cx="747.5"
       sodipodi:cx="747.5"
       sodipodi:cy="135.91246"
       sodipodi:rx="4.5"
       sodipodi:ry="4.5"
       style="fill:#50b432;stroke:none"
       transform="matrix(2.3529412,0,0,2.3529412,5.4117647,-230)" />
  </g>
  <g
     id="g282"
     transform="translate(-6.5882353,198.79983)" />
</svg>
